<?xml version="1.0" standalone="no"?>
<!DOCTYPE svg PUBLIC "-//W3C//DTD SVG 20010904//EN"
 "http://www.w3.org/TR/2001/REC-SVG-20010904/DTD/svg10.dtd">
<svg version="1.0" xmlns="http://www.w3.org/2000/svg"
 width="655.000000pt" height="319.000000pt" viewBox="0 0 655.000000 319.000000"
 preserveAspectRatio="xMidYMid meet">

<g transform="translate(0.000000,319.000000) scale(0.100000,-0.100000)"
fill="#000000" stroke="none">
<path d="M0 1595 l0 -1595 3275 0 3275 0 0 1595 0 1595 -3275 0 -3275 0 0
-1595z m5719 899 c12 -15 21 -34 21 -44 0 -31 -39 -70 -70 -70 -62 0 -97 66
-60 113 29 37 80 37 109 1z m-108 -213 c77 -77 -7 -198 -108 -156 -100 42 -71
185 38 185 31 0 47 -7 70 -29z m167 -245 c15 -8 38 -26 52 -41 22 -23 25 -36
25 -95 0 -59 -3 -72 -25 -95 -100 -108 -270 -48 -270 95 0 111 121 186 218
136z m-342 -291 c28 -8 76 -33 107 -55 31 -22 76 -48 99 -56 51 -19 191 -21
292 -4 38 6 71 9 73 6 10 -9 -16 -123 -37 -170 -113 -238 -457 -301 -681 -125
-84 66 -139 197 -139 329 0 66 3 79 18 83 43 11 221 6 268 -8z"/>
</g>
</svg>
