<?xml version="1.0" encoding="utf-8"?>
<!-- Generator: Adobe Illustrator 22.0.1, SVG Export Plug-In . SVG Version: 6.00 Build 0)  -->
<svg version="1.1" id="Camada_1" xmlns="http://www.w3.org/2000/svg" xmlns:xlink="http://www.w3.org/1999/xlink" x="0px" y="0px"
	 viewBox="0 0 841.9 595.3" style="enable-background:new 0 0 841.9 595.3;" xml:space="preserve">
<style type="text/css">
	.st0{fill:#F7B80D;}
</style>
<g>
	<g>
		<rect x="389.6" y="184.3" width="151" height="52.2"/>
		<path d="M700.8,232.1c10.3,5.8,18.6,13.7,24.7,23.4c6.2,9.9,9.4,20.9,9.4,32.7c0,17.8-6.8,33.3-20.1,46.1
			c-13.1,12.6-28.9,19-46.9,19c-17.9,0-33.6-6.4-46.7-19c-13.3-12.8-20.1-28.3-20.1-46.1c0-11.8,3.2-22.8,9.4-32.7
			c6.1-9.8,14.4-17.6,24.6-23.4l0,0l0.1,0c2.6-1.4,5.3-2.7,8-3.8v-46.2c-6.8,1.4-13.5,3.3-20,5.8l-0.1,0l-0.1,0
			c-14.2,5.2-26.8,12.8-37.5,22.5c-10.9,9.8-19.5,21.5-25.7,34.7c-6.1,13.2-9.3,27.7-9.3,43.1c0,20.4,5.4,39.1,16,55.7
			c10.6,16.4,25.1,29.6,43.2,39.1c18.1,9.5,37.7,14.3,58.1,14.3c15.5,0,30.5-2.8,44.6-8.2l0.2-0.1l0.2-0.1c1.3-0.4,4-1.4,9.4-3.8
			l12.9-5.6v17.4h50.1l0.2-108.7c0-15.4-3.1-29.9-9.3-43.2c-6.1-12.9-14.8-24.6-25.9-34.6l0,0l0,0c-10.6-9.8-23.2-17.4-37.5-22.7
			c-6.5-2.4-13.1-4.3-19.8-5.6v46.2C695.5,229.4,698.2,230.7,700.8,232.1"/>
		<path class="st0" d="M631.6,325.8c10.2,9.8,22.3,14.7,36.3,14.7c14.1,0,26.2-4.9,36.5-14.7c10.2-9.8,15.4-21.5,15.5-35
			c-7.3,2.7-16.7,4.7-28.3,4c-25.5-1.5-37.8-21.8-73.8-16.9c-1.1,4-1.6,8.1-1.6,12.4C616.1,304.1,621.3,315.9,631.6,325.8"/>
		<path class="st0" d="M702,260c0,10.2-8.3,18.5-18.5,18.5c-10.2,0-18.5-8.3-18.5-18.5s8.3-18.5,18.5-18.5
			C693.7,241.5,702,249.8,702,260"/>
		<path class="st0" d="M674.7,220.9c0,6.6-5.3,11.9-11.9,11.9s-11.9-5.3-11.9-11.9c0-6.6,5.3-11.9,11.9-11.9
			S674.7,214.3,674.7,220.9"/>
		<path class="st0" d="M686.8,191.6c0,4.8-3.9,8.8-8.8,8.8c-4.8,0-8.8-3.9-8.8-8.8c0-4.8,3.9-8.8,8.8-8.8
			C682.8,182.8,686.8,186.7,686.8,191.6"/>
		<path d="M160.6,488.7c-15.8,0-29.5-1.9-41-5.8c-11.5-3.9-21.6-8.8-30.5-14.7c-8.8-5.9-17-12.3-24.4-19.1l30.3-35.8
			c9,8.4,18.5,15.4,28.6,21.2c10.1,5.7,22.3,8.6,36.5,8.6c12.7,0,23.8-2.2,33.3-6.5c9.5-4.3,16.9-10.4,22.3-18.2
			c5.4-7.8,8-17.2,7.7-28.4l0.5-49.3l3.3,10.2c-5.6,12.1-15.3,22.5-29.1,31.2c-13.8,8.7-31.1,13-51.9,13c-18,0-34.6-4.6-49.8-13.7
			C81.1,372.3,69,359.9,60,344.2c-9-15.7-13.5-33.6-13.5-53.8c0-20.5,4.8-38.7,14.4-54.7c9.6-16,22.2-28.6,37.7-37.7
			c15.5-9.2,32.1-13.7,49.8-13.7c17.4,0,32.8,3.1,46.3,9.3c13.5,6.2,23.7,14,30.5,23.3l-2.8,7.4l6.1-31.2H276v197.4
			c0,18.6-4.9,35.2-14.7,49.8c-9.8,14.6-23.3,26.3-40.5,35.1C203.7,484.3,183.6,488.7,160.6,488.7z M99.1,289
			c0,11.8,2.7,22.5,8.1,32.1c5.4,9.6,12.9,17.2,22.3,22.8c9.5,5.6,20.1,8.4,31.9,8.4c10.2,0,19.5-1.7,27.7-5.1
			c8.2-3.4,15.4-8.2,21.4-14.4c6.1-6.2,10.5-13.5,13.3-21.9v-43.3c-2.8-8.1-7.1-15.2-13-21.4c-5.9-6.2-13.1-10.9-21.6-14.2
			c-8.5-3.3-17.8-4.9-27.7-4.9c-11.8,0-22.4,2.6-31.9,7.9c-9.5,5.3-16.9,12.6-22.3,21.9C101.8,266.2,99.1,276.9,99.1,289z"/>
		<path d="M310.1,193.1h52.1v196.9h-52.1V193.1z"/>
		<path d="M437.2,106.5h52.1v86.6h51.2v40.5h-51.2v156.4h-52.1V233.6h-34v-40.5h34V106.5z"/>
	</g>
	<path d="M348.9,126.5c-3.9-2.2-8-3.3-12.8-3.3c-4.7,0-8.8,1.1-12.5,3.3c-3.8,2.3-6.9,5.4-9.4,9.5c-2.2,3.8-3.3,8-3.3,12.7
		c0,4.6,1.2,8.9,3.5,13c2.3,3.9,5.3,7,9.2,9.4c3.7,2.2,7.8,3.3,12.5,3.3c4.7,0,8.8-1.1,12.7-3.4c4-2.4,7-5.4,9.3-9.3
		c2.2-3.7,3.3-7.9,3.3-12.9c0-4.7-1.1-8.9-3.3-12.8C355.7,131.8,352.7,128.7,348.9,126.5"/>
</g>
</svg>
